<?xml version="1.0" encoding="utf-8"?>
<!DOCTYPE svg PUBLIC "-//W3C//DTD SVG 1.1//EN" "http://www.w3.org/Graphics/SVG/1.1/DTD/svg11.dtd">
<svg version="1.1" id="Layer_1" xmlns="http://www.w3.org/2000/svg" xmlns:xlink="http://www.w3.org/1999/xlink" x="0px" y="0px" width="470.056px" height="165.114px" viewBox="0 0 470.056 165.114" enable-background="new 0 0 470.056 165.114" xml:space="preserve">
<path fill-rule="evenodd" clip-rule="evenodd" d="M153.362,35.684c5.145-9.845,10.358-19.307,15.048-29.02c2.211-4.579,4.935-7.001,10.247-6.626c5.198,0.367,10.441,0.08,16.569,0.08c-0.964,2.325-1.481,3.99-2.303,5.488c-7.53,13.717-14.943,27.505-22.79,41.039c-2.254,3.888-1.688,6.417,0.868,9.718c9.156,11.825,16.369,24.739,19.698,39.453c7.025,31.054-12.628,60.553-43.876,67.126c-17.544,3.689-34.092-0.137-50.649-4.813c-4.172-1.179-7.764-1.291-12.018,0.115c-21.433,7.089-43.214,9.756-65.263,2.835c-3.915-1.229-7.729-3.203-11.151-5.49c-10.247-6.85-10.314-19.559-0.25-26.716c7.33-5.212,15.752-6.919,24.586-7.055c15.681-0.24,30.131,4.848,44.483,10.315c4.046,1.542,8.13,3.068,11.972,5.041c4.061,2.085,6.943,1.184,9.365-2.42c3.804-5.662,8.072-11.06,11.393-16.989c10.821-19.32,21.271-38.849,31.949-58.25c1.475-2.679,1.692-4.588-0.812-6.954c-20.696-19.552-44.499-33.254-72.704-38.416c-5.101-0.934-10.662-0.778-15.786,0.133c-11.279,2.006-14.677,12.711-6.396,20.745c4.051,3.931,9.388,7.036,14.697,9.069c12.267,4.696,24.888,8.462,37.329,12.713c3.774,1.29,7.502,2.773,11.114,4.464c3.507,1.641,4.348,3.968,1.903,7.572c-6.716,9.9-6.428,9.491-17.641,5.503c-11.269-4.008-23.122-6.386-34.356-10.474c-7.881-2.868-15.544-6.797-22.622-11.32c-16.723-10.688-12.363-32.94,0.882-42.333C50.702,0.395,66.214-0.971,82.272,1.451c18.241,2.751,34.621,10.6,50.211,20.087C139.427,25.764,145.971,30.646,153.362,35.684z M157.671,70.173c-15.408,26.097-26.058,53.759-49.639,72.745c0.983,0.821,1.406,1.43,1.965,1.604c15.969,5.015,32.154,7.686,48.565,2.543c10.343-3.24,16.73-10.359,18.551-21.374c2.405-14.547-2.855-27.217-9.466-39.517C164.865,81,161.44,76.171,157.671,70.173z M74.713,152.466c-0.004-0.472-0.008-0.944-0.013-1.416c-0.695-0.416-1.341-0.99-2.093-1.226c-15.717-4.92-31.419-9.892-47.198-14.604c-2.637-0.788-5.75-1.016-8.402-0.423c-2.528,0.566-5.913,2.047-6.757,4.042c-0.813,1.921,0.368,5.854,2.053,7.406c2.947,2.715,6.745,4.849,10.548,6.227c12.819,4.646,26.109,5.011,39.467,3.008C66.506,154.852,70.585,153.491,74.713,152.466z"/>
<path fill-rule="evenodd" clip-rule="evenodd" d="M346.56,66.414c-10.039-0.109-18.221-8.868-18.076-19.349c0.147-10.606,9.566-20.596,19.279-20.447c10.229,0.156,18.486,8.997,18.422,19.724C366.115,58.084,357.849,66.537,346.56,66.414z"/>
<path d="M468.204,138.817c-0.32-0.45-3.394,0.34-4.54,1.331c-1.941,1.681-3.771,3.492-5.6,5.304c-1.588,1.572-3.176,3.144-4.843,4.626c-0.76,0.676-2.559,0.775-3.559,0.362c-0.566-0.233-0.884-2.157-0.617-3.129c0.674-2.454,1.409-4.904,2.277-7.3c0.321-0.886,0.657-1.766,1.02-2.633c2.1-5.026,4.232-10.039,6.367-15.051c4.992-11.726,4.733-11.847,9.233-22.492c1.719-4.064,0.472-5.691-3.849-5.047c-2.797,0.417-5.534,1.266-8.336,1.592c-3.547,0.413-5.491,2.169-6.821,5.527c-2.714,6.854-5.458,13.716-8.517,20.42c-4.103,7.709-9.487,14.54-16.658,20.132c-0.469,0.365-0.944,0.811-1.424,1.255c-0.005-0.008-0.01-0.017-0.015-0.024c-0.342,0.338-0.707,0.665-1.077,0.99c-0.213,0.177-0.427,0.353-0.641,0.501c0.006,0.014,0.009,0.022,0.015,0.035c-1.177,0.988-2.415,1.941-3.524,2.928c-0.76,0.676-2.559,0.775-3.559,0.362c-0.566-0.233-0.884-2.157-0.617-3.129c0.373-1.358,0.888-2.78,1.419-4.188c0.004,0,0.007-0.002,0.011-0.002c0.012-0.045,0.029-0.09,0.041-0.135c0.412-1.088,0.832-2.167,1.204-3.193c-0.003-0.001-0.007-0.002-0.01-0.003c0.179-0.411,0.355-0.819,0.521-1.222c1.966-4.784,3.98-9.549,6.007-14.308c3.193-7.5,6.424-14.984,9.598-22.492c1.719-4.064,0.472-5.691-3.849-5.047c-2.797,0.417-5.534,1.266-8.336,1.592c-3.547,0.413-5.491,2.169-6.821,5.527c-2.714,6.854-5.458,13.716-8.517,20.42c-0.808,1.77-1.632,3.531-2.489,5.275c-4.069,8.278-10.587,14.474-19.077,18.319c-3.897,1.766-7.558,1.259-10.219-2.402c-4.019-5.531-3.635-19.12,0.792-24.228c18.077-20.852,32.205-44.118,41.683-69.998c3.107-8.486,5.237-17.629,5.938-26.617c0.77-9.883-6.297-13.97-15.079-9.778c-10.771,5.14-16.961,14.801-22.824,24.487c-15.133,25-23.357,52.577-28.498,81.055c-2.447,13.55-11.408,20.931-22.045,27.186c-4.469,2.629-7.279,0.44-6.263-4.704c0.995-5.035,2.512-10.029,4.376-14.816c4.048-10.388,8.486-20.624,12.718-30.941c1.97-4.802,1.325-5.678-3.704-5.239c-2.819,0.245-5.628,0.686-8.451,0.8c-3.669,0.147-5.611,1.922-6.813,5.398c-4.346,12.58-9.003,25.053-13.422,37.608c-2.967,8.427-13.944,12.704-22.197,8.293c7.602-15.723,6.701-31.561-0.092-47.26c-2.004-4.632-3.076-8.899-0.285-13.609c0.871-1.47,0.9-3.549,0.968-5.361c0.148-3.998-0.546-8.033-4.542-9.798c-4.158-1.835-8.363-0.722-11.389,2.695c-5.438,6.143-9.28,13.68-6.385,21.523c3.158,8.561,0.547,14.68-4.318,20.984c-2.338,3.03-4.297,6.372-6.787,9.264c-7.528,8.748-15.287,17.443-26.915,20.65c-3.221,0.889-7.329,0.469-10.467-0.772c-3.363-1.33-2.79-3.843,0.494-5.558c5.002-2.612,10.135-5.098,14.75-8.303c9.036-6.275,15.173-14.524,14.774-26.179c-0.346-10.137-7.289-15.091-17.024-12.492c-9.866,2.634-16.913,9.25-22.966,16.866c-8.385,10.551-12.87,22.57-10.814,36.283c1.496,9.979,10.752,17.84,19.606,15.918c6.551-1.423,13.222-3.744,18.968-7.14c14.352-8.481,24.344-21.508,33.776-34.928c0.97-1.379,1.993-2.72,3.637-4.958c3.108,8.872,5.015,16.668,4.831,24.94c-0.086,3.915-1.465,4.911-5.271,3.611c-6.645-2.269-13.098-1.957-18.918,2.623c-3.236,2.547-5.449,5.539-4.35,9.846c1.1,4.308,4.588,5.87,8.538,6.639c7.341,1.428,13.788-0.832,19.888-4.752c1.3-0.835,3.099-1.778,4.443-1.518c8.933,1.734,17.742,2.89,25.93-2.481c3.922,9.368,7.422,11.183,17.013,9.017c8.04-1.814,14.606-6.328,20.647-11.697c2.268-2.017,4.412-4.172,7.069-6.698c0.367,2.085,0.636,3.369,0.815,4.667c1.767,12.727,12.146,19.199,24.021,14.48c5.201-2.067,9.949-5.282,14.893-7.996c0.822-0.451,1.63-0.944,2.509-1.479c0.037,0.505,0.08,0.998,0.143,1.481c0.92,7.118,5.068,11.162,11.162,10.931c1.684-0.017,3.574-0.432,5.708-1.268c0.996-0.375,1.945-0.812,2.867-1.284c1.572-0.771,3.116-1.633,4.498-2.677c3.789-2.86,7.423-5.927,11.519-9.231c0.027,0.42,0.048,0.804,0.068,1.187c0.087,1.623,0.134,2.966,0.303,4.276c1.109,8.586,6.907,12.72,15.161,10.243c4.804-1.441,8.922-3.823,12.537-6.833c3.938-3.278,7.278-7.304,10.231-11.705C470.555,143.135,469.269,140.314,468.204,138.817z M411.315,25.063c-0.237,2.471-0.077,4.374-0.632,6.039c-7.577,22.754-17.291,44.529-30.059,64.884c-0.437,0.697-0.955,1.354-1.514,1.96c-0.313,0.339-0.785,0.532-1.245,0.829C378.076,84.903,401.578,32.267,411.315,25.063z M213.358,129.514c0.246-12.539,4.266-22.846,13.543-30.771c1.078-0.92,3.312-1.605,4.388-1.094c1.067,0.508,1.829,2.646,1.896,4.106C233.642,111.717,223.862,125.666,213.358,129.514z M257.355,147.656c4.136-3.413,8.176-2.021,12.395-0.249C266.123,151.923,260.782,152.099,257.355,147.656z"/>
</svg>
